<?xml version="1.0" encoding="UTF-8" standalone="no"?>
<!DOCTYPE svg PUBLIC "-//W3C//DTD SVG 1.1//EN" "http://www.w3.org/Graphics/SVG/1.1/DTD/svg11.dtd">
<svg width="100%" height="100%" viewBox="0 0 1024 500" version="1.1" xmlns="http://www.w3.org/2000/svg" xmlns:xlink="http://www.w3.org/1999/xlink" xml:space="preserve" xmlns:serif="http://www.serif.com/" style="fill-rule:evenodd;clip-rule:evenodd;stroke-linejoin:round;stroke-miterlimit:2;">
    <g transform="matrix(26.2564,0,0,11.9048,-1234.05,-464.286)">
        <rect x="47" y="39" width="39" height="42" style="fill:white;"/>
    </g>
    <g transform="matrix(1,0,0,1,0.000978409,0.000640939)">
        <g transform="matrix(1.88794,0,0,1.88794,19.1885,243.503)">
            <g transform="matrix(1,0,0,1,74.79,0)">
                <path d="M39.061,-73.457C44.216,-73.457 48.838,-72.701 52.926,-71.19C57.014,-69.679 60.747,-67.413 64.125,-64.391L54.126,-50.526C50.038,-53.815 45.727,-55.459 41.194,-55.459C36.839,-55.459 33.551,-53.881 31.329,-50.726C29.107,-47.571 27.996,-42.35 27.996,-35.062C27.996,-27.952 29.107,-22.997 31.329,-20.197C33.551,-17.398 36.751,-15.998 40.928,-15.998C43.15,-15.998 45.194,-16.353 47.06,-17.064C48.927,-17.775 51.193,-18.975 53.859,-20.664L64.125,-6.132C57.281,-0.444 49.149,2.4 39.728,2.4C32.262,2.4 25.796,0.844 20.331,-2.266C14.865,-5.377 10.665,-9.754 7.732,-15.398C4.799,-21.042 3.333,-27.552 3.333,-34.929C3.333,-42.394 4.799,-49.038 7.732,-54.859C10.665,-60.681 14.82,-65.235 20.197,-68.524C25.574,-71.812 31.862,-73.457 39.061,-73.457Z" style="fill:rgb(63,63,63);fill-rule:nonzero;"/>
            </g>
            <g transform="matrix(1,0,0,1,74.79,0)">
                <path d="M98.253,-73.457C103.408,-73.457 108.03,-72.701 112.118,-71.19C116.206,-69.679 119.939,-67.413 123.317,-64.391L113.318,-50.526C109.23,-53.815 104.919,-55.459 100.386,-55.459C96.031,-55.459 92.743,-53.881 90.521,-50.726C88.299,-47.571 87.188,-42.35 87.188,-35.062C87.188,-27.952 88.299,-22.997 90.521,-20.197C92.743,-17.398 95.943,-15.998 100.12,-15.998C102.342,-15.998 104.386,-16.353 106.252,-17.064C108.119,-17.775 110.385,-18.975 113.051,-20.664L123.317,-6.132C116.473,-0.444 108.341,2.4 98.92,2.4C91.454,2.4 84.988,0.844 79.523,-2.266C74.057,-5.377 69.857,-9.754 66.924,-15.398C63.991,-21.042 62.525,-27.552 62.525,-34.929C62.525,-42.394 63.991,-49.038 66.924,-54.859C69.857,-60.681 74.012,-65.235 79.389,-68.524C84.766,-71.812 91.054,-73.457 98.253,-73.457Z" style="fill:rgb(63,63,63);fill-rule:nonzero;"/>
            </g>
            <g transform="matrix(1,0,0,1,74.79,0)">
                <path d="M189.707,-36.662C189.707,-36.128 189.573,-33.462 189.307,-28.663L145.846,-28.663C146.468,-23.241 148.001,-19.531 150.445,-17.531C152.889,-15.531 156.378,-14.531 160.91,-14.531C163.577,-14.531 166.221,-15.042 168.843,-16.064C171.465,-17.087 174.331,-18.664 177.442,-20.797L187.04,-7.732C183.307,-4.622 179.041,-2.155 174.242,-0.333C169.443,1.489 164.243,2.4 158.644,2.4C146.557,2.4 137.38,-1 131.115,-7.799C124.849,-14.598 121.716,-23.73 121.716,-35.195C121.716,-42.394 123.027,-48.882 125.649,-54.659C128.271,-60.436 132.159,-65.013 137.314,-68.391C142.469,-71.768 148.69,-73.457 155.978,-73.457C166.376,-73.457 174.597,-70.235 180.641,-63.791C186.685,-57.348 189.707,-48.304 189.707,-36.662ZM166.376,-43.327C166.288,-48.038 165.488,-51.682 163.977,-54.259C162.466,-56.837 159.933,-58.125 156.378,-58.125C153.089,-58.125 150.601,-56.97 148.912,-54.659C147.223,-52.348 146.157,-48.304 145.713,-42.527L166.376,-42.527L166.376,-43.327Z" style="fill:rgb(63,63,63);fill-rule:nonzero;"/>
            </g>
            <g transform="matrix(1,0,0,1,74.79,0)">
                <path d="M238.633,-73.457C244.677,-73.457 249.432,-71.59 252.898,-67.857C256.364,-64.125 258.097,-58.881 258.097,-52.126L258.097,0L234.367,0L234.367,-47.86C234.367,-50.971 233.923,-53.126 233.034,-54.326C232.145,-55.526 230.812,-56.126 229.035,-56.126C225.302,-56.126 221.747,-53.415 218.369,-47.993L218.369,0L194.639,0L194.639,-71.057L215.303,-71.057L217.036,-63.058C220.236,-66.613 223.569,-69.235 227.035,-70.924C230.501,-72.612 234.367,-73.457 238.633,-73.457Z" style="fill:rgb(63,63,63);fill-rule:nonzero;"/>
            </g>
            <g transform="matrix(1,0,0,1,74.79,0)">
                <path d="M313.823,-3.466C311.068,-1.511 307.868,-0.044 304.224,0.933C300.58,1.911 297.025,2.4 293.559,2.4C277.117,2.4 268.896,-6.666 268.896,-24.797L268.896,-54.792L259.697,-54.792L259.697,-71.057L268.896,-71.057L268.896,-86.121L292.626,-88.921L292.626,-71.057L308.757,-71.057L306.357,-54.792L292.626,-54.792L292.626,-25.063C292.626,-21.864 293.137,-19.597 294.159,-18.264C295.181,-16.931 296.714,-16.264 298.758,-16.264C301.247,-16.264 303.647,-16.931 305.957,-18.264L313.823,-3.466Z" style="fill:rgb(63,63,63);fill-rule:nonzero;"/>
            </g>
            <g transform="matrix(1,0,0,1,74.79,0)">
                <path d="M378.748,-36.662C378.748,-36.128 378.614,-33.462 378.348,-28.663L334.887,-28.663C335.509,-23.241 337.042,-19.531 339.486,-17.531C341.93,-15.531 345.419,-14.531 349.951,-14.531C352.618,-14.531 355.262,-15.042 357.884,-16.064C360.506,-17.087 363.372,-18.664 366.483,-20.797L376.081,-7.732C372.348,-4.622 368.082,-2.155 363.283,-0.333C358.484,1.489 353.284,2.4 347.685,2.4C335.598,2.4 326.421,-1 320.156,-7.799C313.89,-14.598 310.757,-23.73 310.757,-35.195C310.757,-42.394 312.068,-48.882 314.69,-54.659C317.312,-60.436 321.2,-65.013 326.355,-68.391C331.51,-71.768 337.731,-73.457 345.019,-73.457C355.417,-73.457 363.638,-70.235 369.682,-63.791C375.726,-57.348 378.748,-48.304 378.748,-36.662ZM355.417,-43.327C355.329,-48.038 354.529,-51.682 353.018,-54.259C351.507,-56.837 348.974,-58.125 345.419,-58.125C342.13,-58.125 339.642,-56.97 337.953,-54.659C336.264,-52.348 335.198,-48.304 334.754,-42.527L355.417,-42.527L355.417,-43.327Z" style="fill:rgb(63,63,63);fill-rule:nonzero;"/>
            </g>
            <g transform="matrix(1,0,0,1,74.79,0)">
                <path d="M449.805,-99.053L449.805,0L428.741,0L427.808,-7.866C425.675,-4.844 422.942,-2.377 419.609,-0.467C416.276,1.444 412.299,2.4 407.677,2.4C398.789,2.4 392.079,-0.978 387.547,-7.732C383.014,-14.487 380.747,-23.819 380.747,-35.728C380.747,-43.016 381.97,-49.527 384.414,-55.259C386.858,-60.992 390.302,-65.458 394.746,-68.657C399.189,-71.857 404.3,-73.457 410.077,-73.457C416.476,-73.457 421.808,-71.412 426.075,-67.324L426.075,-101.453L449.805,-99.053ZM415.409,-14.665C419.675,-14.665 423.23,-17.02 426.075,-21.73L426.075,-51.46C424.564,-53.148 423.097,-54.393 421.675,-55.192C420.253,-55.992 418.609,-56.392 416.743,-56.392C413.187,-56.392 410.366,-54.726 408.277,-51.393C406.188,-48.06 405.144,-42.794 405.144,-35.595C405.144,-27.596 406.033,-22.108 407.81,-19.131C409.588,-16.153 412.121,-14.665 415.409,-14.665Z" style="fill:rgb(63,63,63);fill-rule:nonzero;"/>
            </g>
            <path d="M55.859,0L51.726,-18.931L27.196,-18.931L23.063,0L-2.533,0L24.93,-92.654L54.526,-92.654L81.989,0L55.859,0ZM31.062,-36.528L47.86,-36.528L39.461,-75.056L31.062,-36.528Z" style="fill:rgb(63,63,63);fill-rule:nonzero;"/>
        </g>
        <g transform="matrix(1.88794,0,0,1.88794,19.1885,243.503)">
            <g transform="matrix(1,0,0,1,35.195,105.935)">
                <path d="M71.324,-36.662C71.324,-36.128 71.19,-33.462 70.924,-28.663L27.463,-28.663C28.085,-23.241 29.618,-19.531 32.062,-17.531C34.506,-15.531 37.995,-14.531 42.527,-14.531C45.194,-14.531 47.838,-15.042 50.46,-16.064C53.082,-17.087 55.948,-18.664 59.059,-20.797L68.657,-7.732C64.924,-4.622 60.658,-2.155 55.859,-0.333C51.06,1.489 45.86,2.4 40.261,2.4C28.174,2.4 18.997,-1 12.732,-7.799C6.466,-14.598 3.333,-23.73 3.333,-35.195C3.333,-42.394 4.644,-48.882 7.266,-54.659C9.888,-60.436 13.776,-65.013 18.931,-68.391C24.086,-71.768 30.307,-73.457 37.595,-73.457C47.993,-73.457 56.214,-70.235 62.258,-63.791C68.302,-57.348 71.324,-48.304 71.324,-36.662ZM47.993,-43.327C47.905,-48.038 47.105,-51.682 45.594,-54.259C44.083,-56.837 41.55,-58.125 37.995,-58.125C34.706,-58.125 32.218,-56.97 30.529,-54.659C28.84,-52.348 27.774,-48.304 27.33,-42.527L47.993,-42.527L47.993,-43.327Z" style="fill:rgb(63,63,63);fill-rule:nonzero;"/>
            </g>
            <g transform="matrix(1,0,0,1,35.195,105.935)">
                <path d="M123.45,-3.466C120.695,-1.511 117.495,-0.044 113.851,0.933C110.207,1.911 106.652,2.4 103.186,2.4C86.744,2.4 78.523,-6.666 78.523,-24.797L78.523,-54.792L69.324,-54.792L69.324,-71.057L78.523,-71.057L78.523,-86.121L102.253,-88.921L102.253,-71.057L118.384,-71.057L115.984,-54.792L102.253,-54.792L102.253,-25.063C102.253,-21.864 102.764,-19.597 103.786,-18.264C104.808,-16.931 106.341,-16.264 108.385,-16.264C110.874,-16.264 113.274,-16.931 115.584,-18.264L123.45,-3.466Z" style="fill:rgb(63,63,63);fill-rule:nonzero;"/>
            </g>
            <g transform="matrix(1,0,0,1,35.195,105.935)">
                <path d="M171.177,-3.466C168.422,-1.511 165.222,-0.044 161.578,0.933C157.934,1.911 154.379,2.4 150.913,2.4C134.471,2.4 126.25,-6.666 126.25,-24.797L126.25,-54.792L117.051,-54.792L117.051,-71.057L126.25,-71.057L126.25,-86.121L149.98,-88.921L149.98,-71.057L166.111,-71.057L163.711,-54.792L149.98,-54.792L149.98,-25.063C149.98,-21.864 150.491,-19.597 151.513,-18.264C152.535,-16.931 154.068,-16.264 156.112,-16.264C158.601,-16.264 161.001,-16.931 163.311,-18.264L171.177,-3.466Z" style="fill:rgb(63,63,63);fill-rule:nonzero;"/>
            </g>
            <g transform="matrix(1,0,0,1,35.195,105.935)">
                <path d="M236.102,-36.662C236.102,-36.128 235.968,-33.462 235.702,-28.663L192.241,-28.663C192.863,-23.241 194.396,-19.531 196.84,-17.531C199.284,-15.531 202.773,-14.531 207.305,-14.531C209.972,-14.531 212.616,-15.042 215.238,-16.064C217.86,-17.087 220.726,-18.664 223.837,-20.797L233.435,-7.732C229.702,-4.622 225.436,-2.155 220.637,-0.333C215.838,1.489 210.638,2.4 205.039,2.4C192.952,2.4 183.775,-1 177.51,-7.799C171.244,-14.598 168.111,-23.73 168.111,-35.195C168.111,-42.394 169.422,-48.882 172.044,-54.659C174.666,-60.436 178.554,-65.013 183.709,-68.391C188.864,-71.768 195.085,-73.457 202.373,-73.457C212.771,-73.457 220.992,-70.235 227.036,-63.791C233.08,-57.348 236.102,-48.304 236.102,-36.662ZM212.771,-43.327C212.683,-48.038 211.883,-51.682 210.372,-54.259C208.861,-56.837 206.328,-58.125 202.773,-58.125C199.484,-58.125 196.996,-56.97 195.307,-54.659C193.618,-52.348 192.552,-48.304 192.108,-42.527L212.771,-42.527L212.771,-43.327Z" style="fill:rgb(63,63,63);fill-rule:nonzero;"/>
            </g>
            <g transform="matrix(1,0,0,1,35.195,105.935)">
                <path d="M281.828,-73.19C284.139,-73.19 286.538,-72.79 289.027,-71.99L285.161,-49.06C282.85,-49.771 280.717,-50.126 278.762,-50.126C274.762,-50.126 271.718,-48.771 269.629,-46.06C267.541,-43.35 265.919,-39.239 264.763,-33.729L264.763,0L241.033,0L241.033,-71.057L261.697,-71.057L263.83,-57.592C265.252,-62.303 267.63,-66.08 270.963,-68.924C274.295,-71.768 277.917,-73.19 281.828,-73.19Z" style="fill:rgb(63,63,63);fill-rule:nonzero;"/>
            </g>
            <g transform="matrix(1,0,0,1,35.195,105.935)">
                <path d="M317.157,-73.457C322.312,-73.457 327.222,-72.657 331.888,-71.057C336.554,-69.457 340.531,-67.28 343.82,-64.524L335.288,-51.46C329.599,-55.015 323.867,-56.792 318.09,-56.792C315.601,-56.792 313.757,-56.414 312.557,-55.659C311.357,-54.904 310.758,-53.859 310.758,-52.526C310.758,-51.371 311.069,-50.438 311.691,-49.726C312.313,-49.015 313.624,-48.238 315.624,-47.393C317.623,-46.549 320.801,-45.46 325.156,-44.127C332.443,-41.994 337.821,-39.217 341.287,-35.795C344.753,-32.373 346.486,-27.596 346.486,-21.464C346.486,-16.664 345.086,-12.465 342.287,-8.865C339.487,-5.266 335.621,-2.489 330.688,-0.533C325.756,1.422 320.179,2.4 313.957,2.4C307.914,2.4 302.248,1.444 296.959,-0.467C291.671,-2.377 287.205,-5.022 283.561,-8.399L294.893,-21.064C297.648,-18.931 300.603,-17.242 303.759,-15.998C306.914,-14.754 310.091,-14.131 313.291,-14.131C316.135,-14.131 318.334,-14.598 319.89,-15.531C321.445,-16.464 322.223,-17.864 322.223,-19.731C322.223,-21.153 321.889,-22.264 321.223,-23.063C320.556,-23.863 319.29,-24.641 317.423,-25.397C315.557,-26.152 312.357,-27.196 307.825,-28.529C294.049,-32.618 287.161,-40.128 287.161,-51.06C287.161,-55.237 288.361,-59.036 290.76,-62.458C293.16,-65.88 296.604,-68.568 301.092,-70.524C305.581,-72.479 310.935,-73.457 317.157,-73.457Z" style="fill:rgb(63,63,63);fill-rule:nonzero;"/>
            </g>
            <g transform="matrix(1,0,0,1,0,105.935)">
                <path d="M27.196,2.4C20.531,2.4 15.376,0.533 11.732,-3.2C8.088,-6.932 6.266,-12.309 6.266,-19.331L6.266,-99.053L29.996,-101.453L29.996,-20.131C29.996,-17.553 31.151,-16.264 33.462,-16.264C34.44,-16.264 35.462,-16.442 36.528,-16.798L40.928,0C37.284,1.6 32.707,2.4 27.196,2.4Z" style="fill:rgb(63,63,63);fill-rule:nonzero;"/>
            </g>
        </g>
    </g>
    <g transform="matrix(26.2564,0,0,11.9048,-1234.05,-464.286)">
        <rect x="47" y="39" width="39" height="42" style="fill:url(#_Linear1);"/>
    </g>
    <g transform="matrix(1,0,0,1,11.1355,340)">
        <path d="M55.859,0L51.726,-18.931L27.196,-18.931L23.063,0L-2.533,0L24.93,-92.654L54.526,-92.654L81.989,0L55.859,0ZM31.062,-36.528L47.86,-36.528L39.461,-75.056L31.062,-36.528Z" style="fill:rgb(63,63,63);fill-rule:nonzero;"/>
        <path d="M118.517,-73.457C123.672,-73.457 128.293,-72.701 132.382,-71.19C136.47,-69.679 140.203,-67.413 143.58,-64.391L133.582,-50.526C129.493,-53.815 125.183,-55.459 120.65,-55.459C116.295,-55.459 113.007,-53.881 110.785,-50.726C108.563,-47.571 107.452,-42.35 107.452,-35.062C107.452,-27.952 108.563,-22.997 110.785,-20.197C113.007,-17.398 116.206,-15.998 120.383,-15.998C122.605,-15.998 124.65,-16.353 126.516,-17.064C128.382,-17.775 130.649,-18.975 133.315,-20.664L143.58,-6.132C136.737,-0.444 128.605,2.4 119.184,2.4C111.718,2.4 105.252,0.844 99.786,-2.266C94.32,-5.377 90.121,-9.754 87.188,-15.398C84.255,-21.042 82.789,-27.552 82.789,-34.929C82.789,-42.394 84.255,-49.038 87.188,-54.859C90.121,-60.681 94.276,-65.235 99.653,-68.524C105.03,-71.812 111.318,-73.457 118.517,-73.457Z" style="fill:rgb(63,63,63);fill-rule:nonzero;"/>
        <path d="M179.709,-73.457C184.863,-73.457 189.485,-72.701 193.573,-71.19C197.662,-69.679 201.395,-67.413 204.772,-64.391L194.773,-50.526C190.685,-53.815 186.374,-55.459 181.842,-55.459C177.487,-55.459 174.198,-53.881 171.976,-50.726C169.754,-47.571 168.643,-42.35 168.643,-35.062C168.643,-27.952 169.754,-22.997 171.976,-20.197C174.198,-17.398 177.398,-15.998 181.575,-15.998C183.797,-15.998 185.841,-16.353 187.708,-17.064C189.574,-17.775 191.84,-18.975 194.507,-20.664L204.772,-6.132C197.928,-0.444 189.796,2.4 180.375,2.4C172.91,2.4 166.444,0.844 160.978,-2.266C155.512,-5.377 151.313,-9.754 148.38,-15.398C145.447,-21.042 143.98,-27.552 143.98,-34.929C143.98,-42.394 145.447,-49.038 148.38,-54.859C151.313,-60.681 155.468,-65.235 160.845,-68.524C166.222,-71.812 172.51,-73.457 179.709,-73.457Z" style="fill:rgb(63,63,63);fill-rule:nonzero;"/>
        <path d="M273.162,-36.662C273.162,-36.128 273.029,-33.462 272.762,-28.663L229.302,-28.663C229.924,-23.241 231.457,-19.531 233.901,-17.531C236.345,-15.531 239.834,-14.531 244.366,-14.531C247.033,-14.531 249.677,-15.042 252.299,-16.064C254.92,-17.087 257.787,-18.664 260.897,-20.797L270.496,-7.732C266.763,-4.622 262.497,-2.155 257.698,-0.333C252.899,1.489 247.699,2.4 242.1,2.4C230.013,2.4 220.836,-1 214.57,-7.799C208.305,-14.598 205.172,-23.73 205.172,-35.195C205.172,-42.394 206.483,-48.882 209.105,-54.659C211.726,-60.436 215.615,-65.013 220.77,-68.391C225.924,-71.768 232.146,-73.457 239.434,-73.457C249.832,-73.457 258.053,-70.235 264.097,-63.791C270.141,-57.348 273.162,-48.304 273.162,-36.662ZM249.832,-43.327C249.743,-48.038 248.944,-51.682 247.433,-54.259C245.922,-56.837 243.389,-58.125 239.834,-58.125C236.545,-58.125 234.057,-56.97 232.368,-54.659C230.679,-52.348 229.613,-48.304 229.168,-42.527L249.832,-42.527L249.832,-43.327Z" style="fill:rgb(63,63,63);fill-rule:nonzero;"/>
        <path d="M326.755,-73.457C332.799,-73.457 337.554,-71.59 341.02,-67.857C344.486,-64.125 346.219,-58.881 346.219,-52.126L346.219,0L322.489,0L322.489,-47.86C322.489,-50.971 322.045,-53.126 321.156,-54.326C320.267,-55.526 318.934,-56.126 317.156,-56.126C313.424,-56.126 309.868,-53.415 306.491,-47.993L306.491,0L282.761,0L282.761,-71.057L303.425,-71.057L305.158,-63.058C308.358,-66.613 311.69,-69.235 315.157,-70.924C318.623,-72.612 322.489,-73.457 326.755,-73.457Z" style="fill:rgb(63,63,63);fill-rule:nonzero;"/>
        <path d="M406.611,-3.466C403.856,-1.511 400.656,-0.044 397.012,0.933C393.368,1.911 389.813,2.4 386.347,2.4C369.905,2.4 361.684,-6.666 361.684,-24.797L361.684,-54.792L352.485,-54.792L352.485,-71.057L361.684,-71.057L361.684,-86.121L385.414,-88.921L385.414,-71.057L401.545,-71.057L399.145,-54.792L385.414,-54.792L385.414,-25.063C385.414,-21.864 385.925,-19.597 386.947,-18.264C387.969,-16.931 389.502,-16.264 391.546,-16.264C394.035,-16.264 396.434,-16.931 398.745,-18.264L406.611,-3.466Z" style="fill:rgb(63,63,63);fill-rule:nonzero;"/>
        <path d="M473.668,-36.662C473.668,-36.128 473.535,-33.462 473.268,-28.663L429.808,-28.663C430.43,-23.241 431.963,-19.531 434.407,-17.531C436.851,-15.531 440.339,-14.531 444.872,-14.531C447.538,-14.531 450.183,-15.042 452.804,-16.064C455.426,-17.087 458.293,-18.664 461.403,-20.797L471.002,-7.732C467.269,-4.622 463.003,-2.155 458.204,-0.333C453.404,1.489 448.205,2.4 442.606,2.4C430.519,2.4 421.342,-1 415.076,-7.799C408.81,-14.598 405.678,-23.73 405.678,-35.195C405.678,-42.394 406.988,-48.882 409.61,-54.659C412.232,-60.436 416.121,-65.013 421.275,-68.391C426.43,-71.768 432.652,-73.457 439.939,-73.457C450.338,-73.457 458.559,-70.235 464.603,-63.791C470.646,-57.348 473.668,-48.304 473.668,-36.662ZM450.338,-43.327C450.249,-48.038 449.449,-51.682 447.938,-54.259C446.427,-56.837 443.895,-58.125 440.339,-58.125C437.051,-58.125 434.562,-56.97 432.874,-54.659C431.185,-52.348 430.119,-48.304 429.674,-42.527L450.338,-42.527L450.338,-43.327Z" style="fill:rgb(63,63,63);fill-rule:nonzero;"/>
        <path d="M549.391,-99.053L549.391,0L528.327,0L527.394,-7.866C525.261,-4.844 522.528,-2.377 519.195,-0.467C515.862,1.444 511.885,2.4 507.264,2.4C498.376,2.4 491.666,-0.978 487.133,-7.732C482.6,-14.487 480.334,-23.819 480.334,-35.728C480.334,-43.016 481.556,-49.527 484,-55.259C486.444,-60.992 489.888,-65.458 494.332,-68.657C498.776,-71.857 503.886,-73.457 509.663,-73.457C516.062,-73.457 521.395,-71.412 525.661,-67.324L525.661,-101.453L549.391,-99.053ZM514.996,-14.665C519.262,-14.665 522.817,-17.02 525.661,-21.73L525.661,-51.46C524.15,-53.148 522.684,-54.393 521.262,-55.192C519.84,-55.992 518.195,-56.392 516.329,-56.392C512.774,-56.392 509.952,-54.726 507.863,-51.393C505.775,-48.06 504.731,-42.794 504.731,-35.595C504.731,-27.596 505.619,-22.108 507.397,-19.131C509.174,-16.153 511.707,-14.665 514.996,-14.665Z" style="fill:rgb(63,63,63);fill-rule:nonzero;"/>
        <path d="M613.916,2.4C607.25,2.4 602.095,0.533 598.451,-3.2C594.807,-6.932 592.985,-12.309 592.985,-19.331L592.985,-99.053L616.715,-101.453L616.715,-20.131C616.715,-17.553 617.871,-16.264 620.181,-16.264C621.159,-16.264 622.181,-16.442 623.248,-16.798L627.647,0C624.003,1.6 619.426,2.4 613.916,2.4Z" style="fill:rgb(63,63,63);fill-rule:nonzero;"/>
        <path d="M697.237,-36.662C697.237,-36.128 697.104,-33.462 696.838,-28.663L653.377,-28.663C653.999,-23.241 655.532,-19.531 657.976,-17.531C660.42,-15.531 663.909,-14.531 668.441,-14.531C671.108,-14.531 673.752,-15.042 676.374,-16.064C678.996,-17.087 681.862,-18.664 684.972,-20.797L694.571,-7.732C690.838,-4.622 686.572,-2.155 681.773,-0.333C676.974,1.489 671.774,2.4 666.175,2.4C654.088,2.4 644.911,-1 638.646,-7.799C632.38,-14.598 629.247,-23.73 629.247,-35.195C629.247,-42.394 630.558,-48.882 633.18,-54.659C635.801,-60.436 639.69,-65.013 644.845,-68.391C650,-71.768 656.221,-73.457 663.509,-73.457C673.907,-73.457 682.128,-70.235 688.172,-63.791C694.216,-57.348 697.237,-48.304 697.237,-36.662ZM673.907,-43.327C673.818,-48.038 673.019,-51.682 671.508,-54.259C669.997,-56.837 667.464,-58.125 663.909,-58.125C660.62,-58.125 658.132,-56.97 656.443,-54.659C654.754,-52.348 653.688,-48.304 653.243,-42.527L673.907,-42.527L673.907,-43.327Z" style="fill:rgb(63,63,63);fill-rule:nonzero;"/>
        <path d="M754.03,-3.466C751.274,-1.511 748.075,-0.044 744.431,0.933C740.787,1.911 737.232,2.4 733.766,2.4C717.324,2.4 709.102,-6.666 709.102,-24.797L709.102,-54.792L699.904,-54.792L699.904,-71.057L709.102,-71.057L709.102,-86.121L732.833,-88.921L732.833,-71.057L748.964,-71.057L746.564,-54.792L732.833,-54.792L732.833,-25.063C732.833,-21.864 733.344,-19.597 734.366,-18.264C735.388,-16.931 736.921,-16.264 738.965,-16.264C741.454,-16.264 743.853,-16.931 746.164,-18.264L754.03,-3.466Z" style="fill:rgb(63,63,63);fill-rule:nonzero;"/>
        <path d="M806.422,-3.466C803.667,-1.511 800.468,-0.044 796.824,0.933C793.18,1.911 789.625,2.4 786.159,2.4C769.716,2.4 761.495,-6.666 761.495,-24.797L761.495,-54.792L752.297,-54.792L752.297,-71.057L761.495,-71.057L761.495,-86.121L785.225,-88.921L785.225,-71.057L801.356,-71.057L798.957,-54.792L785.225,-54.792L785.225,-25.063C785.225,-21.864 785.736,-19.597 786.758,-18.264C787.781,-16.931 789.314,-16.264 791.358,-16.264C793.846,-16.264 796.246,-16.931 798.557,-18.264L806.422,-3.466Z" style="fill:rgb(63,63,63);fill-rule:nonzero;"/>
        <path d="M873.48,-36.662C873.48,-36.128 873.347,-33.462 873.08,-28.663L829.619,-28.663C830.241,-23.241 831.775,-19.531 834.219,-17.531C836.663,-15.531 840.151,-14.531 844.684,-14.531C847.35,-14.531 849.994,-15.042 852.616,-16.064C855.238,-17.087 858.104,-18.664 861.215,-20.797L870.814,-7.732C867.081,-4.622 862.815,-2.155 858.015,-0.333C853.216,1.489 848.017,2.4 842.417,2.4C830.33,2.4 821.154,-1 814.888,-7.799C808.622,-14.598 805.489,-23.73 805.489,-35.195C805.489,-42.394 806.8,-48.882 809.422,-54.659C812.044,-60.436 815.932,-65.013 821.087,-68.391C826.242,-71.768 832.463,-73.457 839.751,-73.457C850.15,-73.457 858.371,-70.235 864.414,-63.791C870.458,-57.348 873.48,-48.304 873.48,-36.662ZM850.15,-43.327C850.061,-48.038 849.261,-51.682 847.75,-54.259C846.239,-56.837 843.706,-58.125 840.151,-58.125C836.863,-58.125 834.374,-56.97 832.685,-54.659C830.997,-52.348 829.93,-48.304 829.486,-42.527L850.15,-42.527L850.15,-43.327Z" style="fill:rgb(63,63,63);fill-rule:nonzero;"/>
        <path d="M923.873,-73.19C926.184,-73.19 928.583,-72.79 931.072,-71.99L927.206,-49.06C924.895,-49.771 922.762,-50.126 920.807,-50.126C916.807,-50.126 913.763,-48.771 911.675,-46.06C909.586,-43.35 907.964,-39.239 906.809,-33.729L906.809,0L883.079,0L883.079,-71.057L903.742,-71.057L905.875,-57.592C907.297,-62.303 909.675,-66.08 913.008,-68.924C916.341,-71.768 919.962,-73.19 923.873,-73.19Z" style="fill:rgb(63,63,63);fill-rule:nonzero;"/>
        <path d="M962.401,-73.457C967.556,-73.457 972.466,-72.657 977.132,-71.057C981.798,-69.457 985.776,-67.28 989.064,-64.524L980.532,-51.46C974.844,-55.015 969.111,-56.792 963.334,-56.792C960.846,-56.792 959.001,-56.414 957.802,-55.659C956.602,-54.904 956.002,-53.859 956.002,-52.526C956.002,-51.371 956.313,-50.438 956.935,-49.726C957.557,-49.015 958.868,-48.238 960.868,-47.393C962.868,-46.549 966.045,-45.46 970.4,-44.127C977.688,-41.994 983.065,-39.217 986.531,-35.795C989.997,-32.373 991.73,-27.596 991.73,-21.464C991.73,-16.664 990.33,-12.465 987.531,-8.865C984.731,-5.266 980.865,-2.489 975.932,-0.533C971,1.422 965.423,2.4 959.201,2.4C953.158,2.4 947.492,1.444 942.204,-0.467C936.916,-2.377 932.45,-5.022 928.806,-8.399L940.137,-21.064C942.893,-18.931 945.848,-17.242 949.003,-15.998C952.158,-14.754 955.335,-14.131 958.535,-14.131C961.379,-14.131 963.579,-14.598 965.134,-15.531C966.689,-16.464 967.467,-17.864 967.467,-19.731C967.467,-21.153 967.134,-22.264 966.467,-23.063C965.801,-23.863 964.534,-24.641 962.668,-25.397C960.801,-26.152 957.602,-27.196 953.069,-28.529C939.293,-32.618 932.405,-40.128 932.405,-51.06C932.405,-55.237 933.605,-59.036 936.005,-62.458C938.404,-65.88 941.848,-68.568 946.337,-70.524C950.825,-72.479 956.18,-73.457 962.401,-73.457Z" style="fill:rgb(63,63,63);fill-rule:nonzero;"/>
    </g>
    <g transform="matrix(4.53383,0,0,4.53383,466.063,224.907)">
        <path d="M8.194,0.408C7.129,0.408 6.171,0.21 5.321,-0.187C4.471,-0.584 3.802,-1.139 3.315,-1.853C2.828,-2.567 2.584,-3.411 2.584,-4.386C2.584,-6.245 3.496,-7.661 5.321,-8.636C7.146,-9.611 10.143,-10.257 14.314,-10.574C14.291,-11.254 14.138,-11.877 13.855,-12.444C13.572,-13.011 13.13,-13.458 12.529,-13.787C11.928,-14.116 11.141,-14.28 10.166,-14.28C9.486,-14.28 8.817,-14.195 8.16,-14.025C7.503,-13.855 6.868,-13.623 6.256,-13.328C5.644,-13.033 5.066,-12.727 4.522,-12.41L3.264,-14.688C3.876,-15.051 4.579,-15.419 5.372,-15.793C6.165,-16.167 7.021,-16.467 7.939,-16.694C8.857,-16.921 9.792,-17.034 10.744,-17.034C12.285,-17.034 13.566,-16.751 14.586,-16.184C15.606,-15.617 16.377,-14.813 16.898,-13.77C17.419,-12.727 17.68,-11.469 17.68,-9.996L17.68,0L14.926,0L14.654,-2.142L14.552,-2.142C13.668,-1.462 12.671,-0.867 11.56,-0.357C10.449,0.153 9.327,0.408 8.194,0.408ZM9.146,-2.278C10.03,-2.278 10.903,-2.471 11.764,-2.856C12.625,-3.241 13.475,-3.785 14.314,-4.488L14.314,-8.432C12.138,-8.273 10.432,-8.024 9.197,-7.684C7.962,-7.344 7.095,-6.919 6.596,-6.409C6.097,-5.899 5.848,-5.304 5.848,-4.624C5.848,-4.08 6.001,-3.632 6.307,-3.281C6.613,-2.93 7.015,-2.675 7.514,-2.516C8.013,-2.357 8.557,-2.278 9.146,-2.278ZM11.458,-19.244L5.916,-24.48L8.262,-26.758L13.192,-20.91L11.458,-19.244Z" style="fill:rgb(63,63,63);fill-rule:nonzero;"/>
    </g>
    <defs>
        <linearGradient id="_Linear1" x1="0" y1="0" x2="1" y2="0" gradientUnits="userSpaceOnUse" gradientTransform="matrix(39,0,0,39,47,60)"><stop offset="0" style="stop-color:white;stop-opacity:0.9"/><stop offset="1" style="stop-color:rgb(149,149,149);stop-opacity:0.9"/></linearGradient>
    </defs>
</svg>
