<?xml version="1.0" encoding="UTF-8" standalone="no"?>
<!DOCTYPE svg PUBLIC "-//W3C//DTD SVG 1.1//EN" "http://www.w3.org/Graphics/SVG/1.1/DTD/svg11.dtd">
<svg width="100%" height="100%" viewBox="0 0 29 29" version="1.1" xmlns="http://www.w3.org/2000/svg" xmlns:xlink="http://www.w3.org/1999/xlink" xml:space="preserve" xmlns:serif="http://www.serif.com/" style="fill-rule:evenodd;clip-rule:evenodd;stroke-linejoin:round;stroke-miterlimit:2;">
    <g transform="matrix(1,0,0,1,4.04123,27.3482)">
        <path d="M8.194,0.408C7.129,0.408 6.171,0.21 5.321,-0.187C4.471,-0.584 3.802,-1.139 3.315,-1.853C2.828,-2.567 2.584,-3.411 2.584,-4.386C2.584,-6.245 3.496,-7.661 5.321,-8.636C7.146,-9.611 10.143,-10.257 14.314,-10.574C14.291,-11.254 14.138,-11.877 13.855,-12.444C13.572,-13.011 13.13,-13.458 12.529,-13.787C11.928,-14.116 11.141,-14.28 10.166,-14.28C9.486,-14.28 8.817,-14.195 8.16,-14.025C7.503,-13.855 6.868,-13.623 6.256,-13.328C5.644,-13.033 5.066,-12.727 4.522,-12.41L3.264,-14.688C3.876,-15.051 4.579,-15.419 5.372,-15.793C6.165,-16.167 7.021,-16.467 7.939,-16.694C8.857,-16.921 9.792,-17.034 10.744,-17.034C12.285,-17.034 13.566,-16.751 14.586,-16.184C15.606,-15.617 16.377,-14.813 16.898,-13.77C17.419,-12.727 17.68,-11.469 17.68,-9.996L17.68,0L14.926,0L14.654,-2.142L14.552,-2.142C13.668,-1.462 12.671,-0.867 11.56,-0.357C10.449,0.153 9.327,0.408 8.194,0.408ZM9.146,-2.278C10.03,-2.278 10.903,-2.471 11.764,-2.856C12.625,-3.241 13.475,-3.785 14.314,-4.488L14.314,-8.432C12.138,-8.273 10.432,-8.024 9.197,-7.684C7.962,-7.344 7.095,-6.919 6.596,-6.409C6.097,-5.899 5.848,-5.304 5.848,-4.624C5.848,-4.08 6.001,-3.632 6.307,-3.281C6.613,-2.93 7.015,-2.675 7.514,-2.516C8.013,-2.357 8.557,-2.278 9.146,-2.278ZM11.458,-19.244L5.916,-24.48L8.262,-26.758L13.192,-20.91L11.458,-19.244Z" style="fill:rgb(233,233,233);fill-rule:nonzero;"/>
    </g>
</svg>
